<svg xmlns="http://www.w3.org/2000/svg" width="30" height="30">
    <path fill="#26abf2"
        d="M89.4 34.6l-16.1-28C70.9 2.5 66.5 0 61.7 0H29.4c-4.7 0-9.2 2.5-11.5 6.7l-16.1 28c-2.4 4.1-2.4 9.2 0 13.3l16.1 28c2.4 4.1 6.8 6.7 11.5 6.7h5.4c1.6 0 3-1.2 3.2-2.8L41.2 57c.1-.4-.1-.7-.3-.9l-3.5-3.4c-.4-.4-1.1-.4-1.5 0-.1.1-.1.2-.2.3-1.3 2.8-4.2 4.4-7.2 4.1-3.1-.3-8.7-5.2-11-7.4-.4-.4-.5-1.1-.1-1.6l.2-.2c2.7-1.6 9.2-5.3 12.3-5 3 .3 5.5 2.5 6.2 5.5.1.4.4.7.7.9l4 1.3c.6.2 1.2-.1 1.4-.7v-.2l2.6-20.5c.1-.5-.3-1-.8-1.2-2.9-.9-4.9-3.5-5-6.5-.1-3.1 3.9-9.4 5.7-12 .2-.3.5-.5.9-.5.3 0 .7.2.9.5 1.8 2.6 5.9 8.9 5.7 12-.1 3-2.2 5.6-5 6.5-.5.1-.8.6-.8 1.2L49 49.5v.2c.2.6.8.9 1.4.7l4-1.3c.4-.1.7-.4.7-.9.7-3 3.2-5.2 6.2-5.5 3.1-.3 9.6 3.4 12.3 5 .1.1.2.1.2.2.4.4.4 1.1-.1 1.6-2.3 2.2-8 7.1-11 7.4-3 .3-6-1.4-7.2-4.1-.1-.1-.1-.2-.2-.3-.4-.4-1.1-.4-1.5 0l-3.5 3.4c-.2.2-.4.6-.3.9l3.2 22.9c.2 1.6 1.6 2.8 3.2 2.8h5.4c4.7 0 9.2-2.5 11.5-6.7l16.1-28c2.4-4 2.4-9.1 0-13.2zm-62.5 2.8c-1.2 2.2-4 3-6.2 1.7-1.6-.9-3.4-4.6-4.4-6.7-.2-.6 0-1.2.5-1.4.1-.1.2-.1.3-.1 2.2-.3 6.4-.6 8 .3 2.3 1.2 3.1 4 1.8 6.2zm.5-12c-1.4-1.2-2.5-5.2-3-7.4-.1-.6.2-1.2.8-1.3h.3c2.2.1 6.4.6 7.8 1.7 1.9 1.6 2.2 4.5.5 6.4s-4.4 2.2-6.4.6zm13.4 9.5c1.2 2.2.5 5-1.7 6.2-2.2 1.2-5 .4-6.2-1.7l-.1-.2c-.9-1.6-.4-5.7-.1-8 .1-.6.6-1 1.2-.9.1 0 .2.1.3.1 2.1 1 5.8 2.9 6.6 4.5zm17.5 4.3l-.1.2c-1.2 2.2-4 3-6.2 1.7-2.2-1.2-3-4-1.7-6.2.9-1.6 4.5-3.5 6.5-4.5.1-.1.2-.1.3-.1.6-.1 1.1.3 1.2.9.4 2.3.9 6.4 0 8zm-1-14.3c-1.6-1.9-1.4-4.8.5-6.4 1.4-1.1 5.5-1.6 7.8-1.7h.3c.6.1.9.7.8 1.3-.5 2.2-1.6 6.2-3 7.4-1.9 1.5-4.8 1.3-6.4-.6zm17.5 7.5c-.9 2-2.8 5.8-4.4 6.7-2.2 1.2-4.9.5-6.2-1.7-1.2-2.2-.5-5 1.7-6.2 1.6-.9 5.7-.5 8-.3.1 0 .2 0 .3.1.6.2.8.9.6 1.4z">
    </path>
</svg>