<svg xmlns="http://www.w3.org/2000/svg" xml:space="preserve" width="377.947" height="377.947"><defs><clipPath id="a" clipPathUnits="userSpaceOnUse"><path d="M0 283.46h283.46V0H0Z"/></clipPath></defs><g clip-path="url(#a)" transform="matrix(1.33333 0 0 -1.33333 0 377.947)"><path fill="#231f20" d="M169.253 110.976c-14.1 14.098-36.703 14.499-51.291 1.212 12.175 7.958 28.664 6.594 39.358-4.1 12.267-12.264 12.265-32.148 0-44.411l-15.4-15.401-28.256-28.255C91.09 23.93 69.46 34.595 52.03 52.028c-17.43 17.43-28.096 39.06-32.007 61.634l28.255 28.257 15.402 15.4c12.262 12.263 32.146 12.263 44.409 0 10.696-10.695 12.06-27.184 4.102-39.36 13.288 14.587 12.886 37.193-1.213 51.29-14.517 14.519-38.052 14.518-52.57.002L40.18 151.02 6.733 117.576c4.629-26.721 17.253-52.327 37.888-72.96C65.253 23.985 90.857 11.36 117.577 6.734l33.447 33.446 18.229 18.23c14.517 14.513 14.517 38.05 0 52.567"/><path fill="#231f20" d="M44.618 237.267c-21.232-21.235-33.982-47.737-38.267-75.301 5.867 15.499 15.03 30.034 27.51 42.513a121.077 121.077 0 0 0 20.607 16.54 124.21 124.21 0 0 0 3.504 3.664c46.19 46.187 121.076 46.186 167.263-.002 46.191-46.19 46.191-121.076 0-167.262a117.624 117.624 0 0 0-5.839-5.435 121.229 121.229 0 0 0-14.917-18.126c-12.477-12.481-27.014-21.643-42.514-27.506 27.564 4.28 54.068 17.03 75.302 38.265 53.2 53.198 53.197 139.45-.002 192.649-53.196 53.197-139.449 53.199-192.647 0"/><path fill="#231f20" d="M194.115 93.37c10.834 14.663 9.611 35.44-3.67 48.721-10.73 10.731-26.348 13.58-39.687 8.57 5.011 13.34 2.16 28.957-8.572 39.687-12.76 12.762-32.438 14.388-46.966 4.886a71.68 71.68 0 0 0 20.203 17.451c-17.884-2.545-35.123-10.694-48.88-24.45a86.573 86.573 0 0 1-6.577-7.376c17.545 11.473 41.307 9.51 56.72-5.9 12.957-12.959 16.398-31.818 10.346-47.927 16.11 6.05 34.97 2.61 47.928-10.35 16.04-16.04 17.513-41.125 4.43-58.833a86.961 86.961 0 0 1 9.401 8.14c13.756 13.755 21.905 30.994 24.45 48.878a71.89 71.89 0 0 0-19.125-21.497M171.565 49.306l-42.4-42.4c23.471 2.078 46.416 11.484 65.114 28.225a117.904 117.904 0 0 0-34.423-10.936c13.458 5.09 26.078 13.045 36.912 23.88 9.878 9.877 17.362 21.239 22.471 33.363a98.355 98.355 0 0 0-6.956-7.738c-11.777-11.778-25.819-19.895-40.718-24.394M81.993 218.682c-12.125-5.107-23.486-12.59-33.362-22.468-10.835-10.835-18.788-23.454-23.882-36.91a117.95 117.95 0 0 0 12.328 37.098c-17.959-19.074-28.014-42.87-30.17-67.238l43.437 43.437c4.59 14.31 12.553 27.77 23.91 39.125a97.944 97.944 0 0 0 7.74 6.956"/></g></svg>