<svg width="800" height="600" xmlns="http://www.w3.org/2000/svg">
    <g id="Layer_1">
        <title>Layer 1</title>
        <rect id="svg_2" height="615" width="1199" y="52" x="-129.5" stroke-opacity="0" stroke="#000000"
            fill="#00fff6" />
        <path stroke-width="0" id="svg_1"
            d="m-69.5,525c63,-93 416,-7 498,-96c82,-89 155,-353 262,-350c107,3 195,-31 194.5,-31c0.5,0 -100.5,-129 -101,-129c0.5,0 -874.5,23 -874,23c-0.5,0 -42.5,676 20.5,583z"
            stroke-opacity="0" stroke="#000000" fill="#ff00e1" />
        <path id="svg_4"
            d="m-99.5,467c83,-186 319,-95 431,-179c112,-84 196,-212 265,-261c69,-49 234,-76 233.5,-76c0.5,0 47.5,146 47.5,151c0,5 72,27 -24,23c-96,-4 -291,146 -291.5,146c0.5,0 -89.5,217 -185.5,213c-96,-4 -411,20 -410.5,20c-0.5,0 -17.5,-18 -17.5,-19"
            stroke-opacity="0" stroke="#000000" fill="#ffff66" />
    </g>

</svg>